<?xml version="1.0" encoding="utf-8"?>
<!-- Generator: Adobe Illustrator 16.0.0, SVG Export Plug-In . SVG Version: 6.00 Build 0)  -->
<!DOCTYPE svg PUBLIC "-//W3C//DTD SVG 1.1//EN" "http://www.w3.org/Graphics/SVG/1.1/DTD/svg11.dtd">
<svg version="1.1" id="Warstwa_1" xmlns="http://www.w3.org/2000/svg" xmlns:xlink="http://www.w3.org/1999/xlink" x="0px" y="0px"
	 width="232.441px" height="53.443px" viewBox="0 0 232.441 53.443" enable-background="new 0 0 232.441 53.443"
	 xml:space="preserve">
<g>
	<path fill="#FFFFFF" d="M121.107,9.092c-0.736-1.838-1.789-3.448-3.127-4.786c-1.336-1.336-2.943-2.399-4.777-3.16
		c-1.832-0.758-3.867-1.142-6.045-1.142c-2.176,0-4.207,0.37-6.035,1.101c-1.838,0.737-3.447,1.789-4.785,3.128
		c-1.342,1.34-2.395,2.952-3.127,4.786c-0.732,1.824-1.102,3.854-1.102,6.036v35.008c0,0.967,0.324,1.781,0.963,2.42
		c0.639,0.638,1.453,0.961,2.418,0.961c0.902,0,1.697-0.316,2.361-0.943c0.666-0.634,1.02-1.477,1.02-2.438v-14.16h16.576v14.16
		c0,0.966,0.324,1.779,0.965,2.42c0.639,0.638,1.451,0.961,2.416,0.961s1.779-0.323,2.418-0.963
		c0.639-0.637,0.963-1.451,0.963-2.418V15.054C122.209,12.926,121.838,10.92,121.107,9.092z M115.447,15.054v14.159H98.871V15.07
		c0.004-0.132,0.049-0.641,0.139-1.527c0.086-0.847,0.396-1.797,0.922-2.826c0.51-1.002,1.346-1.929,2.479-2.756
		c1.086-0.792,2.684-1.194,4.748-1.194c2.578,0,4.561,0.729,6.061,2.229C114.719,10.494,115.447,12.477,115.447,15.054z"/>
	<path fill="#FFFFFF" d="M184.076,2.73l-0.363-1.093l-0.271-0.325c-0.371-0.516-0.811-0.863-1.307-1.031l-0.131-0.131h-0.195
		c-0.07-0.024-0.146-0.043-0.223-0.056c-0.359-0.105-0.967-0.138-1.471-0.018h-0.178l-0.211,0.105
		c-0.164,0.036-0.318,0.1-0.451,0.189c-0.043,0.014-0.094,0.031-0.152,0.051l-0.248,0.122c-0.246,0.166-0.482,0.396-0.715,0.698
		c-0.186,0.235-0.342,0.472-0.492,0.761l-0.273,0.284h0.148l-15.488,38.685L146.488,2.096c-0.199-0.464-0.494-0.893-0.877-1.277
		l-0.271-0.271l-0.16-0.076c-0.117-0.056-0.25-0.117-0.4-0.177c-0.141-0.054-0.291-0.111-0.457-0.165l-0.158-0.052h-0.088
		c-0.154-0.048-0.328-0.073-0.518-0.073h-0.688l-0.186,0.095c-0.078,0.013-0.154,0.03-0.223,0.052h-0.197l-0.236,0.131
		c-0.563,0.313-1.063,0.749-1.486,1.294l-0.113,0.18c-0.078,0.159-0.139,0.324-0.182,0.488l-0.145,0.386v0.019
		c-0.047,0.154-0.072,0.328-0.072,0.517v46.898c0,0.966,0.324,1.779,0.965,2.42c0.639,0.638,1.451,0.961,2.416,0.961
		c0.904,0,1.699-0.316,2.363-0.943c0.666-0.633,1.018-1.476,1.018-2.438V20.858l12.184,30.491c0.199,0.465,0.471,0.871,0.809,1.207
		l0.119,0.102c1.398,1.021,2.881,0.97,4.018,0.263l0.695-0.66c0.105-0.104,0.191-0.216,0.26-0.333l0.338-0.337v-0.224
		c0.018-0.049,0.031-0.1,0.045-0.153l12.129-30.355v29.204c0,0.966,0.324,1.779,0.965,2.42c0.639,0.638,1.453,0.961,2.416,0.961
		c0.953,0,1.789-0.333,2.416-0.963c0.641-0.639,0.965-1.452,0.965-2.418V3.385C184.15,3.153,184.125,2.933,184.076,2.73z"/>
	<path fill="#FFFFFF" d="M231.744,12.034c-0.461-1.713-1.049-3.213-1.748-4.458c-0.707-1.259-1.525-2.329-2.432-3.183
		c-0.879-0.825-1.748-1.509-2.59-2.035c-0.939-0.574-1.854-1.024-2.719-1.339c-0.846-0.306-1.615-0.541-2.285-0.694
		c-0.684-0.159-1.273-0.253-1.75-0.282c-0.447-0.027-0.727-0.039-0.83-0.039h-11.67c-0.967,0-1.781,0.324-2.416,0.962
		c-0.631,0.629-0.965,1.466-0.965,2.419v46.677c0,0.966,0.324,1.779,0.963,2.418c0.637,0.64,1.451,0.963,2.418,0.963
		c0.904,0,1.697-0.316,2.361-0.943c0.668-0.634,1.02-1.477,1.02-2.438v-14.16h8.289c0.104,0,0.383-0.012,0.826-0.039
		c0.473-0.026,1.047-0.119,1.756-0.282c0.68-0.158,1.447-0.391,2.283-0.695c0.846-0.307,1.748-0.725,2.729-1.27
		c0.84-0.526,1.711-1.225,2.594-2.079c0.898-0.875,1.713-1.955,2.418-3.208c0.699-1.243,1.285-2.728,1.746-4.417
		c0.465-1.695,0.699-3.688,0.699-5.923C232.441,15.756,232.207,13.752,231.744,12.034z M225.68,17.99
		c0,1.523-0.164,2.973-0.486,4.309c-0.309,1.288-0.803,2.433-1.463,3.403c-0.645,0.943-1.494,1.728-2.529,2.332
		c-1.033,0.602-2.336,1-3.871,1.18h-8.229V6.766l8.23-0.002c1.533,0.088,2.832,0.447,3.854,1.062
		c1.037,0.627,1.887,1.447,2.533,2.433c0.666,1.026,1.164,2.202,1.475,3.495C225.516,15.091,225.68,16.517,225.68,17.99z"/>
</g>
<path fill="#FFFFFF" d="M33.311,6.113h-0.523c-4.486,0-10.963,3.108-19.248,9.237C7.955,19.48,3.34,23.659,2.818,24.134L0,26.722
	l2.82,2.59c0.502,0.459,5.068,4.602,10.719,8.781c8.285,6.129,14.762,9.237,19.248,9.237h0.523c1.354,0,2.717-0.135,4.051-0.401
	l2.123-0.425l-1.734-1.297c-1.67-1.249-3.166-2.77-4.445-4.518l-0.273-0.373l-0.461-0.021c-2.881-0.141-8.285-2.994-14.826-7.828
	c-2.801-2.071-5.359-4.166-7.219-5.745c1.852-1.573,4.404-3.664,7.219-5.744c6.74-4.983,12.223-7.841,15.043-7.841h0.523
	c7.49,0,13.584,6.094,13.584,13.585c0,2.727-0.816,5.367-2.365,7.633l-0.484,0.71l0.648,0.564c0.238,0.207,0.48,0.405,0.736,0.59
	c1.322,0.956,2.811,1.563,4.418,1.803l0.629,0.094l0.336-0.539c2.033-3.266,3.107-7.02,3.107-10.856
	C53.92,15.358,44.676,6.113,33.311,6.113z"/>
<path fill="#F39200" d="M82.586,24.121c-0.828-0.755-5.242-4.728-10.707-8.771c-8.285-6.129-14.762-9.237-19.248-9.237h-0.523
	c-1.688,0-2.604,0.044-4.273,0.467l-2.213,0.561c0,0,1.537,0.768,3.102,2.16c1.566,1.392,3.107,3.412,3.131,3.444l0.291,0.39h0.486
	c2.82,0,8.305,2.858,15.045,7.841c2.803,2.072,5.359,4.166,7.219,5.744c-1.865,1.583-4.426,3.679-7.219,5.745
	c-6.742,4.982-12.225,7.84-15.045,7.84h-0.523c-7.49,0-13.584-6.094-13.584-13.584c0-2.829,0.629-5.03,2.041-7.137l0.445-0.664
	l-0.568-0.562c-0.949-0.938-4.117-2.223-5.391-2.321l-0.582-0.045l-0.311,0.494c-1.889,3.007-2.66,5.972-2.66,10.234
	c0,11.363,9.246,20.608,20.609,20.608h0.523c4.486,0,10.963-3.107,19.248-9.237c5.789-4.282,10.521-8.601,10.721-8.784l2.818-2.587
	L82.586,24.121z"/>
</svg>
