<?xml version="1.0" encoding="utf-8"?>
<!-- Generator: Adobe Illustrator 16.0.0, SVG Export Plug-In . SVG Version: 6.00 Build 0)  -->
<!DOCTYPE svg PUBLIC "-//W3C//DTD SVG 1.1//EN" "http://www.w3.org/Graphics/SVG/1.1/DTD/svg11.dtd">
<svg version="1.1" id="Warstwa_1" xmlns="http://www.w3.org/2000/svg" xmlns:xlink="http://www.w3.org/1999/xlink" x="0px" y="0px"
	 width="595.28px" height="841.89px" viewBox="0 0 595.28 841.89" enable-background="new 0 0 595.28 841.89" xml:space="preserve">
<g>
	<path fill="#FFFFFF" d="M161.473,394.91h-4.769l-10.581,24.22h3.581c0.359,0,0.7-0.06,1.05-0.16c0.35-0.11,0.68-0.26,0.979-0.46
		c0.311-0.2,0.58-0.42,0.82-0.68c0.25-0.26,0.43-0.55,0.569-0.85l1.15-2.69h9.631l1.18,2.69c0.149,0.34,0.34,0.64,0.58,0.91
		c0.229,0.26,0.5,0.48,0.79,0.67s0.609,0.33,0.96,0.42c0.34,0.1,0.7,0.15,1.069,0.15h3.561L161.473,394.91z M156.483,409.28
		l2.131-5.07c0.09-0.23,0.17-0.44,0.229-0.64c0.061-0.21,0.11-0.39,0.14-0.55c0.051-0.19,0.08-0.36,0.101-0.52
		c0.01,0.16,0.039,0.33,0.09,0.51c0.03,0.16,0.08,0.34,0.13,0.54c0.061,0.2,0.14,0.42,0.24,0.66l2.11,5.07H156.483z"/>
	<path fill="#FFFFFF" d="M179.924,413.96v-19.05h-5.53v24.22h15.09v-5.17H179.924z"/>
	<path fill="#FFFFFF" d="M198.643,413.96v-19.05h-5.528v24.22h15.09v-5.17H198.643z"/>
	<path fill="#FFFFFF" d="M212.443,394.91v24.22h5.551v-24.22H212.443z"/>
	<path fill="#FFFFFF" d="M236.273,394.91h-4.77l-10.58,24.22h3.58c0.35,0,0.7-0.06,1.05-0.16c0.351-0.11,0.68-0.26,0.98-0.46
		c0.31-0.2,0.58-0.42,0.819-0.68c0.24-0.26,0.431-0.55,0.57-0.85l1.15-2.69h9.63l1.18,2.69c0.15,0.34,0.34,0.64,0.58,0.91
		c0.229,0.26,0.5,0.48,0.79,0.67s0.61,0.33,0.96,0.42c0.34,0.1,0.7,0.15,1.07,0.15h3.56L236.273,394.91z M231.284,409.28l2.13-5.07
		c0.09-0.23,0.17-0.44,0.229-0.64c0.062-0.21,0.111-0.39,0.142-0.55c0.05-0.19,0.08-0.36,0.1-0.52c0.009,0.16,0.04,0.33,0.089,0.51
		c0.031,0.16,0.081,0.34,0.131,0.54c0.061,0.2,0.141,0.42,0.24,0.66l2.11,5.07H231.284z"/>
	<path fill="#FFFFFF" d="M266.294,394.91v15.29c0-0.03-0.021-0.11-0.05-0.25c-0.03-0.13-0.08-0.29-0.15-0.48
		c-0.07-0.19-0.15-0.38-0.24-0.6c-0.09-0.21-0.199-0.41-0.319-0.59l-8.471-12.4c-0.22-0.33-0.54-0.57-0.96-0.73
		c-0.42-0.16-0.89-0.24-1.43-0.24h-5.44v24.22h5.5v-16.75l11.58,16.75h5.49v-24.22H266.294z"/>
	<path fill="#FFFFFF" d="M296.114,412.27c-0.41-0.18-0.921-0.27-1.5-0.27c-0.761,0-1.431,0.2-2.03,0.6
		c-0.55,0.38-1.15,0.67-1.78,0.89c-0.64,0.22-1.32,0.33-2.04,0.33c-0.939,0-1.82-0.18-2.649-0.53c-0.83-0.35-1.57-0.84-2.2-1.46
		s-1.13-1.35-1.5-2.17c-0.37-0.83-0.561-1.71-0.561-2.65c0-0.93,0.19-1.82,0.561-2.64c0.37-0.83,0.87-1.55,1.5-2.17
		c0.63-0.61,1.37-1.1,2.2-1.46c0.829-0.36,1.71-0.54,2.649-0.54c0.709,0,1.391,0.11,2.021,0.32c0.64,0.22,1.239,0.52,1.8,0.9
		c0.609,0.42,1.29,0.62,2.03,0.62c0.55,0,1.05-0.09,1.479-0.29c0.45-0.2,0.83-0.47,1.17-0.8l1.44-1.44
		c-0.7-0.74-1.44-1.41-2.231-2.01c-0.779-0.6-1.589-1.1-2.429-1.52s-1.7-0.74-2.59-0.96c-0.891-0.23-1.79-0.34-2.69-0.34
		c-1.141,0-2.229,0.14-3.291,0.44c-1.059,0.29-2.049,0.7-2.979,1.24c-0.92,0.53-1.761,1.18-2.521,1.92
		c-0.749,0.75-1.398,1.58-1.938,2.5c-0.54,0.91-0.96,1.89-1.261,2.95c-0.301,1.05-0.439,2.14-0.439,3.28
		c0,1.14,0.139,2.23,0.439,3.29c0.301,1.05,0.721,2.04,1.261,2.95s1.189,1.74,1.938,2.49c0.761,0.75,1.602,1.39,2.521,1.93
		c0.93,0.53,1.92,0.94,2.979,1.24c1.062,0.29,2.15,0.44,3.291,0.44c0.9,0,1.8-0.12,2.69-0.34c0.89-0.23,1.75-0.55,2.59-0.97
		c0.84-0.41,1.649-0.92,2.429-1.52c0.791-0.59,1.531-1.26,2.231-2l-1.44-1.44C296.914,412.73,296.534,412.46,296.114,412.27z"/>
	<path fill="#FFFFFF" d="M319.184,400.09v-5.18h-16.12v24.22h16.12v-5.17h-10.6v-4.46h8.62v-5.17h-8.62v-4.24H319.184z"/>
	<path fill="#FFFFFF" d="M356.424,394.91c-0.37,0-0.73,0.05-1.09,0.15c-0.361,0.09-0.691,0.23-0.99,0.41
		c-0.31,0.18-0.58,0.41-0.81,0.68c-0.24,0.27-0.42,0.57-0.53,0.91l-4.21,12.12c-0.07,0.17-0.14,0.38-0.19,0.61
		c-0.05,0.23-0.09,0.45-0.131,0.65c-0.039,0.24-0.068,0.48-0.08,0.73c-0.028-0.26-0.068-0.51-0.119-0.74
		c-0.04-0.21-0.09-0.42-0.14-0.65c-0.05-0.22-0.11-0.43-0.161-0.6l-4.239-12.12c-0.119-0.31-0.29-0.61-0.51-0.87
		c-0.229-0.26-0.49-0.49-0.79-0.68c-0.3-0.18-0.62-0.33-0.99-0.44c-0.359-0.1-0.729-0.16-1.109-0.16h-6.05v24.22h5.529v-16.16
		l6.21,16.16h4.79l6.101-16.16v16.16h5.52v-24.22H356.424z"/>
	<path fill="#FFFFFF" d="M384.414,400.09v-5.18h-16.12v24.22h16.12v-5.17h-10.59v-4.46h8.609v-5.17h-8.609v-4.24H384.414z"/>
	<path fill="#FFFFFF" d="M410.924,403.81c-0.29-1.03-0.7-1.99-1.23-2.89c-0.529-0.9-1.17-1.71-1.92-2.45
		c-0.75-0.74-1.569-1.37-2.47-1.9c-0.911-0.53-1.88-0.94-2.92-1.22c-1.04-0.29-2.12-0.44-3.229-0.44h-10.021v24.22h10.021
		c1.109,0,2.189-0.15,3.229-0.43c1.04-0.29,2.009-0.7,2.92-1.22c0.9-0.52,1.72-1.15,2.47-1.89c0.75-0.74,1.391-1.56,1.92-2.45
		c0.53-0.9,0.94-1.86,1.23-2.89c0.3-1.03,0.44-2.11,0.44-3.22C411.364,405.91,411.224,404.84,410.924,403.81z M405.284,409.58
		c-0.36,0.8-0.851,1.49-1.46,2.09c-0.62,0.59-1.33,1.06-2.131,1.4c-0.81,0.34-1.649,0.52-2.539,0.52h-4.5v-13.13h4.5
		c0.89,0,1.729,0.17,2.539,0.51c0.801,0.34,1.511,0.81,2.131,1.41c0.609,0.6,1.1,1.3,1.46,2.1c0.358,0.8,0.54,1.65,0.54,2.55
		C405.824,407.93,405.643,408.78,405.284,409.58z"/>
	<path fill="#FFFFFF" d="M416.434,394.91v24.22h5.539v-24.22H416.434z"/>
	<path fill="#FFFFFF" d="M440.264,394.91h-4.77l-10.58,24.22h3.58c0.35,0,0.699-0.06,1.05-0.16c0.349-0.11,0.68-0.26,0.979-0.46
		c0.311-0.2,0.58-0.42,0.82-0.68c0.25-0.26,0.43-0.55,0.57-0.85l1.149-2.69h9.63l1.181,2.69c0.149,0.34,0.34,0.64,0.58,0.91
		c0.229,0.26,0.5,0.48,0.79,0.67s0.609,0.33,0.949,0.42c0.351,0.1,0.711,0.15,1.08,0.15h3.561L440.264,394.91z M435.273,409.28
		l2.131-5.07c0.09-0.23,0.159-0.44,0.229-0.64c0.06-0.21,0.11-0.39,0.14-0.55c0.051-0.19,0.08-0.36,0.101-0.52
		c0.01,0.16,0.04,0.33,0.09,0.51c0.03,0.16,0.08,0.34,0.13,0.54c0.061,0.2,0.14,0.42,0.24,0.66l2.109,5.07H435.273z"/>
	<path fill="#FFFFFF" d="M161.943,430.51c-0.32-0.74-0.75-1.38-1.3-1.93c-0.55-0.551-1.2-0.99-1.939-1.311
		c-0.74-0.319-1.521-0.479-2.36-0.479h-6.92v19.37h2.67v-7.2h4.25c0.84,0,1.62-0.16,2.36-0.479c0.739-0.32,1.39-0.76,1.939-1.311
		c0.55-0.55,0.979-1.189,1.3-1.93s0.48-1.53,0.48-2.37C162.424,432.04,162.264,431.25,161.943,430.51z M159.483,434.21
		c-0.17,0.41-0.42,0.771-0.729,1.08c-0.311,0.31-0.67,0.55-1.09,0.729c-0.41,0.17-0.851,0.26-1.32,0.26h-4.25v-6.809h4.25
		c0.47,0,0.91,0.09,1.32,0.26c0.42,0.18,0.779,0.42,1.09,0.729c0.31,0.31,0.56,0.681,0.729,1.09c0.181,0.41,0.271,0.86,0.271,1.32
		C159.754,433.35,159.664,433.79,159.483,434.21z"/>
	<path fill="#FFFFFF" d="M184.063,433.84c-0.229-0.84-0.56-1.63-1-2.359c-0.43-0.74-0.949-1.41-1.55-2.01
		c-0.59-0.601-1.26-1.111-2-1.541c-0.729-0.439-1.52-0.77-2.359-1c-0.851-0.24-1.721-0.35-2.631-0.35c-0.909,0-1.79,0.109-2.63,0.35
		c-0.84,0.23-1.63,0.561-2.37,1c-0.729,0.43-1.4,0.94-2,1.541c-0.6,0.6-1.109,1.27-1.54,2.01c-0.439,0.729-0.77,1.52-1.011,2.359
		c-0.229,0.84-0.35,1.721-0.35,2.631c0,1.369,0.261,2.649,0.781,3.85c0.52,1.199,1.229,2.25,2.119,3.14
		c0.9,0.899,1.949,1.61,3.15,2.13c1.19,0.51,2.48,0.77,3.85,0.77c0.91,0,1.78-0.109,2.631-0.35c0.84-0.23,1.63-0.57,2.359-1
		c0.74-0.43,1.41-0.949,2-1.55c0.601-0.59,1.12-1.26,1.55-2c0.44-0.729,0.771-1.521,1-2.36c0.24-0.84,0.351-1.72,0.351-2.629
		C184.414,435.561,184.304,434.68,184.063,433.84z M181.174,439.279c-0.38,0.881-0.9,1.641-1.551,2.291
		c-0.65,0.66-1.419,1.17-2.289,1.55s-1.811,0.569-2.811,0.569s-1.939-0.189-2.81-0.569c-0.88-0.38-1.64-0.89-2.29-1.55
		c-0.66-0.65-1.17-1.41-1.55-2.291c-0.38-0.869-0.57-1.809-0.57-2.809s0.19-1.941,0.57-2.811c0.38-0.881,0.89-1.641,1.55-2.29
		c0.65-0.66,1.41-1.17,2.29-1.55c0.87-0.381,1.81-0.57,2.81-0.57s1.94,0.189,2.811,0.57c0.87,0.38,1.639,0.89,2.289,1.55
		c0.65,0.649,1.171,1.409,1.551,2.29c0.38,0.869,0.57,1.811,0.57,2.811S181.554,438.41,181.174,439.279z"/>
	<path fill="#FFFFFF" d="M190.693,443.49v-16.7h-2.68v19.37h11.04v-2.67H190.693z"/>
	<path fill="#FFFFFF" d="M211.014,436.189c-0.27-0.209-0.55-0.39-0.84-0.539c-0.3-0.15-0.61-0.301-0.91-0.43
		c-0.31-0.131-0.621-0.25-0.939-0.361c-0.32-0.109-0.641-0.229-0.95-0.359c-0.641-0.221-1.19-0.42-1.63-0.609
		c-0.45-0.19-0.811-0.391-1.09-0.601c-0.28-0.21-0.48-0.45-0.61-0.72c-0.13-0.271-0.19-0.6-0.19-0.99c0-0.33,0.08-0.641,0.25-0.93
		c0.17-0.28,0.4-0.53,0.681-0.74c0.279-0.2,0.608-0.37,0.979-0.48c0.379-0.119,0.78-0.18,1.2-0.18c0.32,0,0.65,0.08,1.009,0.23
		c0.371,0.149,0.721,0.35,1.071,0.609c0.33,0.21,0.71,0.311,1.14,0.311c0.49,0,0.931-0.16,1.311-0.49l0.689-0.51
		c-0.25-0.301-0.55-0.61-0.92-0.95c-0.371-0.33-0.791-0.64-1.25-0.921c-0.46-0.27-0.939-0.51-1.47-0.68
		c-0.521-0.18-1.05-0.27-1.58-0.27c-0.73,0-1.44,0.109-2.13,0.33c-0.7,0.23-1.32,0.55-1.861,0.98
		c-0.539,0.43-0.969,0.959-1.299,1.58c-0.33,0.619-0.5,1.329-0.5,2.119c0,0.86,0.15,1.59,0.46,2.17c0.3,0.58,0.7,1.07,1.2,1.471
		c0.5,0.399,1.07,0.74,1.7,1.02c0.64,0.279,1.29,0.55,1.96,0.82c0.449,0.18,0.898,0.35,1.37,0.52c0.46,0.17,0.88,0.381,1.259,0.62
		c0.371,0.25,0.681,0.54,0.911,0.88c0.229,0.34,0.35,0.78,0.35,1.301c0,0.539-0.12,1.02-0.37,1.43s-0.56,0.75-0.95,1.02
		c-0.38,0.28-0.81,0.49-1.27,0.631c-0.47,0.149-0.93,0.219-1.37,0.219c-0.54,0-1.02-0.08-1.44-0.239c-0.42-0.16-0.8-0.38-1.14-0.671
		l-0.221-0.17c-0.399-0.43-0.899-0.639-1.489-0.639c-0.36,0-0.72,0.1-1.06,0.309l-0.65,0.341c0.049,0.11,0.12,0.239,0.21,0.399
		c0.1,0.17,0.21,0.351,0.33,0.551c0.14,0.199,0.29,0.4,0.47,0.609c0.181,0.211,0.391,0.42,0.63,0.631
		c1.16,1.039,2.62,1.549,4.36,1.549c0.87,0,1.71-0.139,2.51-0.43c0.811-0.3,1.51-0.709,2.13-1.24c0.61-0.52,1.101-1.149,1.45-1.879
		c0.37-0.73,0.55-1.541,0.55-2.431C213.063,438.63,212.384,437.23,211.014,436.189z"/>
	<path fill="#FFFFFF" d="M216.604,426.79v19.37h2.67v-19.37H216.604z M231.434,445.93l-6.93-9.35c-0.09-0.13-0.18-0.221-0.271-0.27
		c-0.079-0.061-0.119-0.09-0.14-0.11c0.021-0.011,0.061-0.04,0.14-0.101c0.091-0.06,0.181-0.149,0.271-0.279l6.66-9.03h-1.84
		c-0.521,0-0.99,0.101-1.391,0.31c-0.399,0.2-0.729,0.5-0.99,0.91l-5.42,7.35c-0.119,0.16-0.229,0.301-0.35,0.41
		c-0.11,0.101-0.21,0.19-0.31,0.25c-0.091,0.07-0.171,0.11-0.23,0.141c-0.07,0.029-0.11,0.04-0.11,0.04c0,0.01,0.04,0.03,0.11,0.06
		c0.06,0.03,0.14,0.08,0.23,0.141c0.1,0.06,0.199,0.149,0.31,0.25c0.12,0.109,0.23,0.229,0.35,0.39l5.86,7.899
		c0.271,0.41,0.589,0.711,1,0.92c0.4,0.201,0.86,0.301,1.38,0.301h1.84L231.434,445.93z"/>
	<path fill="#FFFFFF" d="M242.393,426.79h-2.608l-8.351,19.14l-0.1,0.23h1.54c0.43,0,0.81-0.11,1.16-0.34
		c0.35-0.221,0.6-0.521,0.76-0.9l1.34-3.08h9.9l1.35,3.08c0.17,0.391,0.42,0.689,0.771,0.91c0.34,0.22,0.72,0.33,1.14,0.33h1.55
		L242.393,426.79z M237.313,439.16l3.53-8.1c0.061-0.16,0.11-0.34,0.15-0.521c0.04-0.19,0.069-0.399,0.09-0.63
		c0.02,0.449,0.109,0.84,0.26,1.15l3.521,8.1H237.313z"/>
</g>
</svg>
